<?xml version="1.0" encoding="utf-8"?>
<!-- Generator: Adobe Illustrator 19.0.0, SVG Export Plug-In . SVG Version: 6.00 Build 0)  -->
<svg version="1.1" id="Capa_1" xmlns="http://www.w3.org/2000/svg" xmlns:xlink="http://www.w3.org/1999/xlink" x="0px" y="0px"
	 viewBox="0 0 178.8 252.5" style="enable-background:new 0 0 178.8 252.5;" xml:space="preserve">
<style type="text/css">
	.st0{fill:none;}
	.st1{fill:#2B69B6;stroke:#2B69B6;stroke-width:2;stroke-miterlimit:10;}
	.st2{fill:#FFFFFF;}
	.st3{fill:#2B69B6;stroke:#2B69B6;stroke-miterlimit:10;}
</style>
<g>
	<g>
		<path class="st0" d="M136.4,41.2c-0.6,0-1.1-0.2-1.6-0.6c-23.3-20.1-51.4-20.4-51.7-20.4c-1.3,0-2.4-1.1-2.4-2.4
			c0-1.3,1.1-2.4,2.4-2.4c1.2,0,30.2,0.2,54.8,21.5c1,0.9,1.1,2.4,0.2,3.4C137.8,40.9,137.1,41.2,136.4,41.2z"/>
	</g>
	<g>
		<path class="st1" d="M148,60.9c-0.6,0-1.1-0.2-1.6-0.6C107,25.6,54.8,34.6,54.3,34.7c-1.3,0.2-2.5-0.6-2.8-1.9
			c-0.2-1.3,0.6-2.5,1.9-2.8c0.6-0.1,13.9-2.5,32.5-0.4c17.2,1.9,42.1,8.2,63.6,27.1c1,0.9,1.1,2.4,0.2,3.4
			C149.3,60.7,148.6,60.9,148,60.9z"/>
	</g>
	<g>
		<path class="st1" d="M154.1,79.5c-0.6,0-1.2-0.2-1.7-0.7c-20-20.4-44.8-30.4-73.8-29.7c-21.7,0.5-37.7,7.3-37.9,7.3
			c-1.2,0.5-2.6,0-3.1-1.3c-0.5-1.2,0-2.6,1.3-3.1c0.7-0.3,16.9-7.1,39.5-7.7c20.9-0.6,51.3,4.4,77.5,31.1c0.9,0.9,0.9,2.5,0,3.4
			C155.3,79.3,154.7,79.5,154.1,79.5z"/>
	</g>
	<g>
		<path class="st1" d="M159.8,105.7c-0.8,0-1.6-0.4-2-1.1c-15.6-24.3-36.4-38.1-61.7-40.8C62,60.1,32.6,77.7,30.9,79.4
			c-0.9,1-2.3,1.1-3.4,0.3c-1-0.9-1.1-2.4-0.3-3.4c2.4-2.8,31.9-19.7,65.6-17.5c28.5,1.8,51.7,16.4,69,43.3c0.7,1.1,0.4,2.6-0.7,3.3
			C160.7,105.5,160.2,105.7,159.8,105.7z"/>
	</g>
	<g>
		<g id="XMLID_22_">
			<path id="XMLID_29_" class="st2" d="M164.6,152.2c-0.5,0-1-0.2-1.5-0.5c-8.2-6.5-11.1-17.5-13.9-28.2c-1.5-5.9-3.1-11.9-5.5-16.9
				c-7-14.8-22.8-25.6-42.4-28.8c-27.8-4.6-57.4,6-79.1,28.4c-0.9,0.9-2.4,1-3.4,0.1c-0.9-0.9-1-2.4-0.1-3.4
				c22.8-23.5,54-34.7,83.3-29.8c21.4,3.6,38.2,15,45.9,31.5c2.6,5.4,4.2,11.7,5.8,17.8c2.7,10.4,5.2,20.2,12.2,25.6
				c1,0.8,1.2,2.3,0.4,3.4C166,151.9,165.3,152.2,164.6,152.2z"/>
		</g>
	</g>
	<g>
		<path class="st1" d="M156.4,183c-0.4,0-0.9-0.1-1.3-0.4c-21.9-14-22.4-20.3-23.4-32.7c-0.2-1.9-0.3-4.1-0.6-6.5
			c-1.3-11.1-5.4-26.2-17.3-34.9c-9.1-6.6-21.5-8.5-36.7-5.5c-11.7,2.3-21.1,11.4-31,21c-7.6,7.4-15.5,15-25.5,21
			c-1.1,0.7-2.6,0.3-3.3-0.8c-0.7-1.1-0.3-2.6,0.8-3.3c9.5-5.7,17.2-13.1,24.6-20.3c10.5-10.1,20.3-19.7,33.4-22.3
			c16.6-3.3,30.2-1.1,40.5,6.3c13.3,9.7,17.8,26.2,19.2,38.2c0.3,2.5,0.5,4.7,0.6,6.7c1,11.9,1.3,16.3,21.2,29.1
			c1.1,0.7,1.4,2.2,0.7,3.3C158,182.6,157.2,183,156.4,183z"/>
	</g>
	<g>
		<path class="st1" d="M164.6,173.6c-0.5,0-1-0.2-1.5-0.5c-0.7-0.5-1.3-1-2-1.5c-10.9-8.5-18.2-14.2-21.9-42.3
			c-1.5-13.2-11-25.9-24.6-33.2c-17.1-9.2-38.2-8.7-57.7,1.2c-9.1,4.6-17.5,12.7-27.2,22.1c-2.8,2.7-5.7,5.5-8.7,8.3
			c-1,0.9-2.5,0.9-3.4-0.1c-0.9-1-0.9-2.5,0.1-3.4c3-2.8,5.9-5.6,8.7-8.3c10-9.7,18.6-18,28.4-23c21-10.7,43.6-11.1,62.2-1.2
			c15,8,25.4,22.1,27.1,36.8c3.4,26.2,9.3,30.8,20.1,39.1c0.6,0.5,1.3,1,2,1.5c1,0.8,1.2,2.3,0.4,3.4
			C166,173.2,165.3,173.6,164.6,173.6z"/>
	</g>
	<g>
		<path class="st0" d="M30.5,192.2c-1.2,0-2.3-1-2.4-2.2c-0.1-1.3,0.9-2.5,2.2-2.5c16.8-1.1,31.1-17.2,46.8-36.6
			c3.2-4.1,5.7-7,9-6.7c3.6,0.3,6.3,4.4,10.4,12.4c2.9,4.3,7.8,5.2,15.4,2.9c3.8-1.7,6.4-4.5,7.6-8.2c2-6,0.6-14.1-4.1-22.8
			c-5.7-9.8-13.7-15.4-23.2-16.2c-10-0.8-21.1,4.1-27.7,12.1c-8.7,10.7-12.4,14.2-39.8,34.5c-1.1,0.8-2.6,0.6-3.3-0.5
			c-0.8-1.1-0.6-2.6,0.5-3.3c28.2-20.8,30.9-23.7,39-33.7c7.6-9.4,20.1-14.8,31.8-13.9c7.8,0.6,18.8,4.4,27,18.6c0,0,0,0,0,0.1
			c5.3,10,6.9,19.4,4.4,26.7c-1.7,5-5.3,8.8-10.3,11.1c-0.1,0-0.2,0.1-0.3,0.1c-9.8,3-16.9,1.3-21-5c0-0.1-0.1-0.2-0.1-0.2
			c-4.1-8.1-5.8-9.8-6.6-9.9c0,0,0,0,0,0c-0.7,0-2.3,1.6-4.8,4.9c-16.4,20.3-31.5,37.2-50.2,38.4C30.6,192.2,30.6,192.2,30.5,192.2z
			"/>
	</g>
	<g>
		<path class="st3" d="M29.3,181.4c-1.2,0-2.4-0.2-3.5-0.5c-1.3-0.4-1.9-1.8-1.5-3c0.4-1.3,1.8-1.9,3-1.5
			c7.7,2.6,24.3-11.1,44.3-36.7c0.4-0.6,0.7-0.9,0.9-1.2c4.7-5.8,11.6-9.2,17.4-8.7c3,0.3,7.2,1.6,10.3,6.9c1.5,2.3,2.4,4.5,3.2,6.6
			c1.9,4.7,2.5,5.1,4.4,4.6c1.7-0.9,3.1-2.6,1.1-9.3c-3.6-8.7-9.3-13.9-16.5-14.9c-8.2-1.2-16.7,3.1-20.5,7.8
			c-3.9,4.9-12.3,13.9-20.8,21.8c-11.1,10.5-19.6,16.5-25,17.8c-1.3,0.3-2.6-0.5-2.9-1.7c-0.3-1.3,0.5-2.6,1.7-2.9
			c10.2-2.5,34.9-27.8,43.2-38c4.8-5.9,14.9-11,24.9-9.6c6.2,0.9,14.8,4.8,20.2,17.9c0,0.1,0.1,0.1,0.1,0.2c1,3.1,3.6,11.4-3.6,15.1
			c-0.1,0.1-0.3,0.1-0.4,0.2c-6.6,2-8.7-3.1-10.4-7.3c-0.8-1.9-1.6-3.9-2.9-5.8c0,0-0.1-0.1-0.1-0.1c-1.6-2.8-3.8-4.3-6.6-4.6
			c-4.2-0.4-9.6,2.5-13.3,7c-0.2,0.2-0.4,0.6-0.8,1.1C55.2,168.4,39.7,181.4,29.3,181.4z"/>
	</g>
	<g>
		<path class="st1" d="M35.6,203.1c-1,0-2-0.7-2.3-1.7c-0.4-1.3,0.4-2.6,1.6-3c7.1-2,16.1-6.4,24.6-11.8c7.4-4.8,13.7-10,15.9-13.2
			c2.9-4.2,5.5-6.3,8.5-6.9c2.9-0.5,6.1,0.5,10.1,3.4c4.1,3,14.2,2.9,20.9,2.8c3.2,0,5.7,0,7.4,0.2c3.9,0.5,9.3,4.4,15.6,8.9
			c5.4,3.9,11,8,15.2,9.4c1.2,0.4,1.9,1.8,1.5,3c-0.4,1.2-1.8,1.9-3,1.5c-4.9-1.7-10.8-5.9-16.5-10.1c-5-3.6-10.7-7.7-13.4-8.1
			c-1.4-0.2-3.8-0.2-6.7-0.1c-7.8,0.1-18.4,0.1-23.8-3.7c-2.8-2-4.9-2.9-6.5-2.6c-1.6,0.3-3.3,1.8-5.4,4.8c-5.5,8-26.8,22.3-43.1,27
			C36.1,203,35.8,203.1,35.6,203.1z"/>
	</g>
	<g>
		<path class="st1" d="M40,212.3c-1.2,0-2.2-0.9-2.4-2.1c-0.2-1.3,0.8-2.5,2.1-2.7c10.4-1.3,27-11,30.9-14.1
			c7.5-6.6,25.1-13.9,43.5-6.8c0.1,0,0.2,0.1,0.3,0.1h0c3.9,2,7.6,3.9,11,5.7c10.9,5.6,20.3,10.5,22.9,10.8c1.3,0.2,2.3,1.3,2.1,2.7
			c-0.2,1.3-1.3,2.3-2.7,2.1c-3.3-0.4-10.3-3.9-24.5-11.3c-3.4-1.8-7-3.6-10.9-5.6c-16.2-6.2-32.3,0.4-38.6,6c0,0-0.1,0.1-0.1,0.1
			c-4.7,3.8-22.1,13.8-33.4,15.2C40.2,212.3,40.1,212.3,40,212.3z"/>
	</g>
	<g>
		<path class="st1" d="M45.8,223.6c-1.1,0-2-0.7-2.3-1.8c-0.3-1.3,0.4-2.6,1.7-2.9c14.4-3.8,22-7.9,40.7-20.2
			c10.4-6.8,26.8,1.4,41.2,8.6c6.8,3.4,13.1,6.6,17,7.1c1.3,0.2,2.2,1.4,2.1,2.7c-0.2,1.3-1.4,2.2-2.7,2.1
			c-4.6-0.6-11.1-3.8-18.5-7.5c-12.6-6.3-28.3-14.2-36.4-8.9c-19.3,12.6-27.1,16.8-42.1,20.8C46.2,223.5,46,223.6,45.8,223.6z"/>
	</g>
	<g>
		<path class="st0" d="M57.5,232.4c-1.1,0-2-0.7-2.3-1.8c-0.3-1.3,0.4-2.6,1.7-2.9c9.5-2.4,10.5-3,16.9-6.8c3-1.7,7-4.1,13.5-7.6
			c11.5-6.2,22.1-0.6,31.5,4.3c3.9,2.1,7.6,4,11,5c1.3,0.4,2,1.7,1.7,2.9c-0.4,1.3-1.7,2-2.9,1.7c-3.9-1.1-7.9-3.1-12-5.3
			c-8.7-4.6-17.7-9.4-27-4.4c-6.4,3.5-10.4,5.8-13.3,7.5c-6.6,3.9-7.9,4.7-18.1,7.3C57.9,232.4,57.7,232.4,57.5,232.4z"/>
	</g>
	<g>
		<path class="st0" d="M80.8,235.9c-0.8,0-1.5-0.4-2-1.1c-0.7-1.1-0.4-2.6,0.7-3.3c13.2-8.7,24.9-9.3,34.8-1.5
			c1,0.8,1.2,2.3,0.4,3.4c-0.8,1-2.3,1.2-3.4,0.4c-8.2-6.4-17.8-5.8-29.2,1.7C81.7,235.8,81.3,235.9,80.8,235.9z"/>
	</g>
	<g>
		<path id="XMLID_x5F_4_x5F__1_" class="st0" d="M82,19.6c0,0,30,0,55.1,22.9"/>
		<text id="XMLID_83_">		<textPath  xlink:href="#XMLID_x5F_4_x5F__1_" startOffset="0.977%">
<tspan  class="st3" style="font-family:'MyriadPro-Regular'; font-size:8.9761px;">01010101010101</tspan>		</textPath>
</text>
	</g>
	<path id="SVGID_x5F_1_x5F_" class="st0" d="M20.5,107.9c39.7-42.7,103.7-41,124.3,1c6.9,14.2,2.6,25.9,19.8,44.3"/>
	<text>	<textPath  xlink:href="#SVGID_x5F_1_x5F_" startOffset="0%">
<tspan  class="st3" style="font-family:'MyriadPro-Regular'; font-size:9.5745px;">010101010101010101010101010101010101010101</tspan>	</textPath>
</text>
	<g>
		<path id="XMLID_x5F_24_x5F_" class="st0" d="M23.3,159.3c27.8-20.6,31-23.8,39.4-34.1c11.7-14.4,39.1-21.9,54.3,4.4
			c7.4,18.4,2.1,27.6-5.2,30.3c-3.3,1.2-12.6,2.9-15.6-3.4c-8.9-18.9-13.2-12.7-20.9-2.7c-15.2,18.7-28.3,33.1-46.5,34.3"/>
		<text id="XMLID_86_">		<textPath  xlink:href="#XMLID_x5F_24_x5F_" startOffset="0%">
<tspan  style="fill:#2B69B6;stroke:#2B69B6;stroke-width:0.5;stroke-miterlimit:10; font-family:'MyriadPro-Regular'; font-size:6.547px;">sql ruby and rails sublimetext python javascript css html5 sql ruby and rails sublinetext  javascript</tspan>		</textPath>
</text>
	</g>
	<g>
		<path id="XMLID_x5F_25_x5F_" class="st0" d="M57.5,232.1c14.3-3.7,10.2-3.4,30.9-14.6c14.9-8.1,28.6,6.2,40.8,9.5"/>
		<text id="XMLID_89_">		<textPath  xlink:href="#XMLID_x5F_25_x5F_" startOffset="0%">
<tspan  class="st3" style="font-family:'MyriadPro-Regular'; font-size:6.547px;">010101010101010101001010</tspan>		</textPath>
</text>
	</g>
	<g>
		<path id="XMLID_x5F_26_x5F_" class="st0" d="M80.8,235.7c12.3-8.1,22.9-8.7,32-1.6"/>
		<text id="XMLID_91_">		<textPath  xlink:href="#XMLID_x5F_26_x5F_" startOffset="0%">
<tspan  class="st3" style="font-family:'MyriadPro-Regular'; font-size:6.547px;">01010101010</tspan>		</textPath>
</text>
	</g>
</g>
</svg>
